<?xml version="1.0" encoding="UTF-8" standalone="no"?>
<!-- Created with Inkscape (http://www.inkscape.org/) -->

<svg
   xmlns:dc="http://purl.org/dc/elements/1.1/"
   xmlns:cc="http://creativecommons.org/ns#"
   xmlns:rdf="http://www.w3.org/1999/02/22-rdf-syntax-ns#"
   xmlns:svg="http://www.w3.org/2000/svg"
   xmlns="http://www.w3.org/2000/svg"
   xmlns:sodipodi="http://sodipodi.sourceforge.net/DTD/sodipodi-0.dtd"
   xmlns:inkscape="http://www.inkscape.org/namespaces/inkscape"
   width="50.567745mm"
   height="47.275738mm"
   viewBox="0 0 50.567745 47.275738"
   version="1.1"
   id="svg30067"
   inkscape:version="0.92.2 2405546, 2018-03-11"
   sodipodi:docname="hand.svg">
  <defs
     id="defs30061" />
  <sodipodi:namedview
     id="base"
     pagecolor="#ffffff"
     bordercolor="#666666"
     borderopacity="1.0"
     inkscape:pageopacity="0.0"
     inkscape:pageshadow="2"
     inkscape:zoom="2.8"
     inkscape:cx="85.193254"
     inkscape:cy="66.99031"
     inkscape:document-units="mm"
     inkscape:current-layer="layer1"
     showgrid="false"
     inkscape:window-width="1920"
     inkscape:window-height="1016"
     inkscape:window-x="0"
     inkscape:window-y="27"
     inkscape:window-maximized="1" />
  <metadata
     id="metadata30064">
    <rdf:RDF>
      <cc:Work
         rdf:about="">
        <dc:format>image/svg+xml</dc:format>
        <dc:type
           rdf:resource="http://purl.org/dc/dcmitype/StillImage" />
        <dc:title></dc:title>
      </cc:Work>
    </rdf:RDF>
  </metadata>
  <g
     inkscape:label="Layer 1"
     inkscape:groupmode="layer"
     id="layer1"
     transform="translate(-118.95802,-59.375756)">
    <path
       style="fill:#ffffff;fill-opacity:1;stroke:#000000;stroke-width:0.60000002;stroke-miterlimit:4;stroke-dasharray:none;stroke-opacity:1"
       d="m 164.93851,105.74277 c -0.78156,0.91528 -1.68697,0.85934 -9.56615,-0.59085 l -7.75318,-1.42698 -3.87121,0.30525 c -2.12918,0.16791 -5.27995,0.23507 -7.00174,0.14975 -2.20972,-0.11014 -4.70881,-0.79143 -6.99451,-0.37701 -3.88292,0.70406 -4.5672,-1.18017 -5.24029,-2.74864 -0.46193,-1.07643 0.72104,-1.594817 1.49462,-2.32355 0.62119,-0.585169 6.07634,-0.18144 9.91114,-0.677944 2.91763,-0.377762 3.33766,-0.50671 3.84116,-1.179273 0.95116,-1.27054 0.62527,-2.657957 -1.19369,-5.082032 l -2.1564,-2.548201 -7.95902,-5.38623 c -7.53753,-5.100987 -8.55816,-4.947139 -8.9666,-5.8588 -0.71948,-1.605972 0.32981,-3.355956 2.08483,-3.476989 0.8046,-0.05549 1.86716,-0.177187 8.83925,3.842064 4.26538,2.458918 7.65225,5.06219 7.75734,5.092095 0.10503,0.02999 0.27446,-0.2002 0.37641,-0.511354 0.15718,-0.480865 -0.78414,-1.624817 -6.26875,-7.616259 -3.54976,-3.877772 -6.73869,-7.843756 -6.73869,-7.843756 -0.63153,-1.760275 1.32501,-3.345344 3.11846,-2.738933 0.54956,0.185519 3.11303,2.025116 7.13908,6.806262 5.14567,6.110786 7.00215,6.909983 7.49082,6.833045 0.5264,-0.08288 0.6465,-1.888653 -3.47354,-8.596044 -3.19691,-5.204518 -3.87238,-7.818697 -3.87238,-7.818697 -0.23357,-1.606744 1.9015,-2.760345 3.48236,-2.104996 1.26346,0.523779 0.0252,-0.01917 6.55157,11.479147 1.6336,2.87813 3.66511,5.067516 3.82,5.119512 0.15492,0.05199 0.50834,0.01364 0.78541,-0.08523 0.45265,-0.161539 -0.16386,-3.511022 -1.8225,-7.319626 -1.19044,-3.094192 -3.2559,-6.558473 -2.42343,-7.53814 0.88516,-1.476489 2.81288,0.314852 3.68927,1.872574 0.32808,0.583157 2.73563,4.461554 3.40977,6.558824 1.57041,5.255427 3.00115,6.646454 5.07278,10.234975 0.72938,1.263449 2.24588,3.901763 3.37003,5.862937 1.12247,2.439831 2.25999,3.744906 4.25672,4.695787 1.9621,1.001976 2.26182,1.243246 2.64498,2.129127 l 0.43215,0.999103 -1.93003,5.697075 c -1.06129,3.133467 -2.1127,5.911017 -2.33597,6.172497 z"
       id="path30082"
       inkscape:connector-curvature="0"
       sodipodi:nodetypes="ccccscccccccscccccsccscsssssccccccccccccc"
       inkscape:export-xdpi="16.027344"
       inkscape:export-ydpi="16.027344" />
  </g>
  <g
     inkscape:groupmode="layer"
     id="layer5"
     inkscape:label="Layer 2"
     transform="translate(-118.95802,-59.375756)" />
</svg>
