<?xml version="1.0" encoding="UTF-8" standalone="no"?>
<svg
   xmlns:dc="http://purl.org/dc/elements/1.1/"
   xmlns:cc="http://creativecommons.org/ns#"
   xmlns:rdf="http://www.w3.org/1999/02/22-rdf-syntax-ns#"
   xmlns:svg="http://www.w3.org/2000/svg"
   xmlns="http://www.w3.org/2000/svg"
   xmlns:sodipodi="http://sodipodi.sourceforge.net/DTD/sodipodi-0.dtd"
   xmlns:inkscape="http://www.inkscape.org/namespaces/inkscape"
   style="enable-background:new"
   id="svg8"
   version="1.1"
   viewBox="0 0 51.239887 48.116016"
   height="48.116016mm"
   width="51.239887mm"
   sodipodi:docname="rightHand.svg"
   inkscape:version="0.92.2 2405546, 2018-03-11">
  <sodipodi:namedview
     pagecolor="#ffffff"
     bordercolor="#666666"
     borderopacity="1"
     objecttolerance="10"
     gridtolerance="10"
     guidetolerance="10"
     inkscape:pageopacity="0"
     inkscape:pageshadow="2"
     inkscape:window-width="1920"
     inkscape:window-height="1016"
     id="namedview1476"
     showgrid="false"
     inkscape:zoom="1.2977314"
     inkscape:cx="96.831283"
     inkscape:cy="90.927905"
     inkscape:window-x="0"
     inkscape:window-y="27"
     inkscape:window-maximized="1"
     inkscape:current-layer="svg8" />
  <defs
     id="defs2">
    <filter
       id="filter850"
       style="color-interpolation-filters:sRGB">
      <feBlend
         id="feBlend852"
         in2="BackgroundImage"
         mode="screen" />
    </filter>
  </defs>
  <metadata
     id="metadata5">
    <rdf:RDF>
      <cc:Work
         rdf:about="">
        <dc:format>image/svg+xml</dc:format>
        <dc:type
           rdf:resource="http://purl.org/dc/dcmitype/StillImage" />
        <dc:title />
      </cc:Work>
    </rdf:RDF>
  </metadata>
  <g
     transform="translate(-120.94749,-93.48063)"
     style="filter:url(#filter850)"
     id="layer3">
    <ellipse
       transform="rotate(-31.526916)"
       ry="13.754232"
       rx="14.489224"
       cy="168.07451"
       cx="61.455254"
       id="path844"
       style="opacity:1;fill:#000000;fill-opacity:0;stroke:#000000;stroke-width:0.58529556;stroke-linecap:round;stroke-linejoin:round;stroke-miterlimit:4;stroke-dasharray:none;stroke-dashoffset:0;stroke-opacity:1;paint-order:markers stroke fill" />
  </g>
  <g
     transform="translate(-120.94749,-93.48063)"
     id="layer2">
    <path
       id="path839"
       d="m 160.90466,141.4416 c -4.61573,-1.37556 -9.1401,-1.69882 -13.84855,-4.14236 -6.72054,-3.29891 -14.2467,-7.64865 -20.07093,-12.29783 -0.52962,-1.13468 -0.28632,-7.69523 -0.28632,-7.69523 l -0.13267,3.74247 c -0.0294,0.83058 -4.83289,-1.85916 -5.48323,-2.95797 -0.086,-4.56246 1.69632,-12.83097 7.03797,-12.74257 -3.1875,-0.1013 -5.0826,3.28234 -5.0826,3.28234 0,0 0.19582,0.18017 0.0569,-0.0349 -0.88431,-1.36945 -1.00465,-2.32974 -1.16492,-3.21896 0.28855,-1.60011 0.58347,-3.19397 1.59671,-4.0835 1.9153,-1.07645 3.49494,-1.38474 4.92956,-1.361171 0.67261,0.289491 1.28547,0.615631 1.74427,1.036271 0.0701,0.6591 -0.0472,1.43313 -0.18884,2.22213 -0.48061,0.81253 -0.94528,1.63498 -1.89114,2.15783 0.64204,0.64081 1.31824,1.26066 1.54459,2.15647 0.0941,0.79215 0.29042,1.52166 -0.23284,2.69255 l -3.00796,3.95151 c 0.51269,0.79406 0.82546,1.71077 0.27414,3.15754 l 3.25704,-4.99116 c 0.64136,0.0315 1.2363,-0.13663 2.04818,0.62812 0.56007,0.26209 0.97448,1.10615 1.36524,2.04479 -0.30956,1.668 -0.32639,3.15642 -1.64815,5.44534 l 0.88195,2.34125 c 0.76744,2.31132 7.04124,3.3073 11.54185,1.78668 4.58663,-1.54969 9.47158,-5.55643 9.22013,-9.86706 0,0 0,0 0.33166,-2.53145 -0.30224,-0.81231 -0.79281,-1.50908 -1.73683,-1.92769 -2.45019,-0.11289 -4.39981,0.26506 -7.5084,-0.49342 -0.81487,-0.5915 -1.64045,-1.30626 -2.50371,-2.45496 -0.50887,-1.98603 -0.20075,-1.95645 -0.18816,-2.656 0.54268,-0.78233 1.47232,-1.54449 6.81867,-2.07661 0.94352,0.50141 2.27738,-0.0806 3.76537,-1.09043 2.03131,-0.38417 2.91839,1.06939 3.78501,2.55581 1.13136,1.12144 1.72999,1.37444 2.49828,1.90401 1.04275,-0.14622 1.84069,0.72944 2.73452,1.2048 0.69883,0.97549 1.20554,2.06885 1.47488,3.30781 2.38142,4.3037 1.81206,5.71404 7.14427,12.91109 l 2.02246,1.30905 z"
       style="fill:#ffffff;fill-opacity:1;stroke:#000000;stroke-width:0.26499999;stroke-linecap:butt;stroke-linejoin:miter;stroke-miterlimit:4;stroke-dasharray:none;stroke-opacity:1" />
    <path
       id="path841"
       d="m 131.50014,101.01544 c -0.51118,-0.12247 -2.53565,-2.552915 -2.50804,-4.052411 0,0 0.81619,-3.036164 2.42081,-3.209573 1.79038,-0.606272 4.2742,0.954937 4.20509,1.104632 1.03147,1.118461 1.02801,2.792564 1.02801,2.792564 0.25257,3.000218 -2.33954,3.762108 -5.14587,3.364788 z"
       style="fill:#ffffff;fill-opacity:1;stroke:#000000;stroke-width:0.26458332px;stroke-linecap:butt;stroke-linejoin:miter;stroke-opacity:1" />
  </g>
</svg>
